<svg width="6" height="5" viewBox="0 0 6 5" fill="none" xmlns="http://www.w3.org/2000/svg">
<path d="M3 4C3.39782 4 3.77936 3.84196 4.06066 3.56066C4.34196 3.27936 4.5 2.89782 4.5 2.5C4.5 2.10218 4.34196 1.72064 4.06066 1.43934C3.77936 1.15804 3.39782 1 3 1C2.60218 1 2.22064 1.15804 1.93934 1.43934C1.65804 1.72064 1.5 2.10218 1.5 2.5C1.5 2.89782 1.65804 3.27936 1.93934 3.56066C2.22064 3.84196 2.60218 4 3 4ZM3 5C2.33696 5 1.70107 4.73661 1.23223 4.26777C0.763392 3.79893 0.5 3.16304 0.5 2.5C0.5 1.83696 0.763392 1.20107 1.23223 0.732233C1.70107 0.263392 2.33696 0 3 0C3.66304 0 4.29893 0.263392 4.76777 0.732233C5.23661 1.20107 5.5 1.83696 5.5 2.5C5.5 3.16304 5.23661 3.79893 4.76777 4.26777C4.29893 4.73661 3.66304 5 3 5Z" fill="black"/>
</svg>
