<svg width="40" height="40" viewBox="0 0 40 40" fill="none" xmlns="http://www.w3.org/2000/svg">
<path d="M18.1069 31.6668C19.1625 31.6668 20.0514 31.3057 20.7736 30.5835C21.4958 29.8613 21.8569 28.9724 21.8569 27.9168V21.6668H26.8569V18.3335H20.1903V24.7918C19.8847 24.5696 19.558 24.4096 19.2103 24.3118C18.8625 24.2141 18.4947 24.1657 18.1069 24.1668C17.0514 24.1668 16.1625 24.5279 15.4403 25.2502C14.718 25.9724 14.3569 26.8613 14.3569 27.9168C14.3569 28.9724 14.718 29.8613 15.4403 30.5835C16.1625 31.3057 17.0514 31.6668 18.1069 31.6668ZM10.1903 36.6668C9.2736 36.6668 8.4886 36.3402 7.83527 35.6868C7.18194 35.0335 6.85583 34.2491 6.85694 33.3335V6.66683C6.85694 5.75017 7.1836 4.96517 7.83694 4.31183C8.49027 3.6585 9.27471 3.33239 10.1903 3.3335H23.5236L33.5236 13.3335V33.3335C33.5236 34.2502 33.1969 35.0352 32.5436 35.6885C31.8903 36.3418 31.1058 36.6679 30.1903 36.6668H10.1903ZM21.8569 15.0002H30.1903L21.8569 6.66683V15.0002Z" fill="#00B9D6"/>
</svg>
