<svg width="25" height="30" viewBox="0 0 25 30" fill="none" xmlns="http://www.w3.org/2000/svg">
<path d="M25 1.15385V24.2308C25 24.5368 24.8803 24.8303 24.6672 25.0467C24.4541 25.2631 24.165 25.3846 23.8636 25.3846H4.54545C3.94269 25.3846 3.36461 25.6277 2.93839 26.0605C2.51217 26.4933 2.27273 27.0803 2.27273 27.6923H21.5909C21.8923 27.6923 22.1813 27.8139 22.3944 28.0303C22.6075 28.2466 22.7273 28.5401 22.7273 28.8462C22.7273 29.1522 22.6075 29.4457 22.3944 29.662C22.1813 29.8784 21.8923 30 21.5909 30H1.13636C0.834981 30 0.545943 29.8784 0.332833 29.662C0.119724 29.4457 0 29.1522 0 28.8462V4.61538C0.00374615 3.39248 0.483844 2.22075 1.33547 1.35602C2.1871 0.491288 3.34108 0.00380378 4.54545 0H23.8636C24.165 0 24.4541 0.121566 24.6672 0.337954C24.8803 0.554342 25 0.847827 25 1.15385Z" fill="#00B9D6"/>
</svg>
