<svg width="30" height="30" viewBox="0 0 30 30" fill="none" xmlns="http://www.w3.org/2000/svg">
<path d="M3.75 0C2.75544 0 1.80161 0.395088 1.09835 1.09835C0.395088 1.80161 0 2.75544 0 3.75V26.25C0 27.2446 0.395088 28.1984 1.09835 28.9016C1.80161 29.6049 2.75544 30 3.75 30H26.25C27.2446 30 28.1984 29.6049 28.9016 28.9016C29.6049 28.1984 30 27.2446 30 26.25V3.75C30 2.75544 29.6049 1.80161 28.9016 1.09835C28.1984 0.395088 27.2446 0 26.25 0H3.75ZM9.58333 8.75C9.58333 9.19203 9.40774 9.61595 9.09518 9.92851C8.78262 10.2411 8.35869 10.4167 7.91667 10.4167C7.47464 10.4167 7.05072 10.2411 6.73816 9.92851C6.42559 9.61595 6.25 9.19203 6.25 8.75C6.25 8.30797 6.42559 7.88405 6.73816 7.57149C7.05072 7.25893 7.47464 7.08333 7.91667 7.08333C8.35869 7.08333 8.78262 7.25893 9.09518 7.57149C9.40774 7.88405 9.58333 8.30797 9.58333 8.75ZM12.5 8.75C12.5 8.41848 12.6317 8.10054 12.8661 7.86612C13.1005 7.6317 13.4185 7.5 13.75 7.5H22.9167C23.2482 7.5 23.5661 7.6317 23.8006 7.86612C24.035 8.10054 24.1667 8.41848 24.1667 8.75C24.1667 9.08152 24.035 9.39946 23.8006 9.63388C23.5661 9.8683 23.2482 10 22.9167 10H13.75C13.4185 10 13.1005 9.8683 12.8661 9.63388C12.6317 9.39946 12.5 9.08152 12.5 8.75ZM12.5 15C12.5 14.6685 12.6317 14.3505 12.8661 14.1161C13.1005 13.8817 13.4185 13.75 13.75 13.75H22.9167C23.2482 13.75 23.5661 13.8817 23.8006 14.1161C24.035 14.3505 24.1667 14.6685 24.1667 15C24.1667 15.3315 24.035 15.6495 23.8006 15.8839C23.5661 16.1183 23.2482 16.25 22.9167 16.25H13.75C13.4185 16.25 13.1005 16.1183 12.8661 15.8839C12.6317 15.6495 12.5 15.3315 12.5 15ZM13.75 20H22.9167C23.2482 20 23.5661 20.1317 23.8006 20.3661C24.035 20.6005 24.1667 20.9185 24.1667 21.25C24.1667 21.5815 24.035 21.8995 23.8006 22.1339C23.5661 22.3683 23.2482 22.5 22.9167 22.5H13.75C13.4185 22.5 13.1005 22.3683 12.8661 22.1339C12.6317 21.8995 12.5 21.5815 12.5 21.25C12.5 20.9185 12.6317 20.6005 12.8661 20.3661C13.1005 20.1317 13.4185 20 13.75 20ZM7.91667 16.6667C7.47464 16.6667 7.05072 16.4911 6.73816 16.1785C6.42559 15.8659 6.25 15.442 6.25 15C6.25 14.558 6.42559 14.134 6.73816 13.8215C7.05072 13.5089 7.47464 13.3333 7.91667 13.3333C8.35869 13.3333 8.78262 13.5089 9.09518 13.8215C9.40774 14.134 9.58333 14.558 9.58333 15C9.58333 15.442 9.40774 15.8659 9.09518 16.1785C8.78262 16.4911 8.35869 16.6667 7.91667 16.6667ZM9.58333 21.25C9.58333 21.692 9.40774 22.116 9.09518 22.4285C8.78262 22.7411 8.35869 22.9167 7.91667 22.9167C7.47464 22.9167 7.05072 22.7411 6.73816 22.4285C6.42559 22.116 6.25 21.692 6.25 21.25C6.25 20.808 6.42559 20.384 6.73816 20.0715C7.05072 19.7589 7.47464 19.5833 7.91667 19.5833C8.35869 19.5833 8.78262 19.7589 9.09518 20.0715C9.40774 20.384 9.58333 20.808 9.58333 21.25Z" fill="#00B9D6"/>
</svg>
