<svg width="24" height="29" viewBox="0 0 24 29" fill="none" xmlns="http://www.w3.org/2000/svg">
<path fill-rule="evenodd" clip-rule="evenodd" d="M8.12492 27.2333L3.12492 23.66C1.75659 22.6833 1.07159 22.1933 0.703252 21.4766C0.333252 20.76 0.333252 19.9166 0.333252 18.2366V11.765C0.333252 11.2283 0.333252 10.7783 0.344919 10.39L10.3333 17.5233V28.7183C9.73825 28.385 9.04492 27.89 8.12492 27.2333ZM13.6666 28.7166C14.2616 28.3833 14.9549 27.8866 15.8749 27.23L20.8749 23.6583C22.2433 22.6816 22.9283 22.1916 23.2966 21.475C23.6666 20.7583 23.6666 19.9166 23.6666 18.235V11.7633C23.6666 11.2266 23.6666 10.7766 23.6549 10.3883L13.6666 17.5233V28.7183V28.7166ZM22.2133 7.32164L11.9999 14.6183L1.78659 7.32331C2.13992 7.04331 2.57825 6.72997 3.12492 6.33997L8.12492 2.76831C9.99659 1.43164 10.9333 0.763306 11.9999 0.763306C13.0666 0.763306 14.0033 1.42997 15.8749 2.76831L20.8749 6.33997C21.4233 6.72997 21.8599 7.04164 22.2133 7.32164Z" fill="#D9A626"/>
</svg>
