<svg width="28" height="29" viewBox="0 0 28 29" fill="none" xmlns="http://www.w3.org/2000/svg">
<path d="M17.3334 23.0985C16.4441 24.4319 15.3334 25.0985 14.0001 25.0985C12.6668 25.0985 11.5561 24.4319 10.6668 23.0985M20.7801 21.0985H7.22009C6.83054 21.0987 6.44793 20.9955 6.11136 20.7993C5.77479 20.6032 5.49633 20.3212 5.30445 19.9822C5.11256 19.6432 5.01414 19.2593 5.01923 18.8698C5.02432 18.4803 5.13275 18.0991 5.33343 17.7652C6.642 15.5842 7.3333 13.0886 7.33343 10.5452V9.09853C7.33343 7.68404 7.89533 6.32749 8.89552 5.3273C9.89572 4.3271 11.2523 3.7652 12.6668 3.7652H15.3334C16.7479 3.7652 18.1045 4.3271 19.1047 5.3273C20.1049 6.32749 20.6668 7.68404 20.6668 9.09853V10.5452C20.6668 13.0879 21.3574 15.5852 22.6668 17.7652C22.8674 18.0991 22.9759 18.4803 22.981 18.8698C22.986 19.2593 22.8876 19.6432 22.6957 19.9822C22.5039 20.3212 22.2254 20.6032 21.8888 20.7993C21.5523 20.9955 21.1696 21.0987 20.7801 21.0985Z" stroke="black" stroke-width="1.5" stroke-linecap="round" stroke-linejoin="round"/>
</svg>
