<svg width="32" height="32" viewBox="0 0 32 32" fill="none" xmlns="http://www.w3.org/2000/svg">
<circle cx="16" cy="16" r="15.5" stroke="#4365A7"/>
<path d="M23.2063 16.3313L17.5813 21.9563C17.4924 22.0391 17.3749 22.0842 17.2534 22.082C17.132 22.0799 17.0161 22.0307 16.9302 21.9448C16.8444 21.8589 16.7952 21.743 16.793 21.6216C16.7909 21.5002 16.836 21.3826 16.9188 21.2938L21.743 16.4688H9.125C9.00068 16.4688 8.88145 16.4194 8.79354 16.3315C8.70564 16.2436 8.65625 16.1243 8.65625 16C8.65625 15.8757 8.70564 15.7565 8.79354 15.6686C8.88145 15.5807 9.00068 15.5313 9.125 15.5313H21.743L16.9188 10.7063C16.836 10.6174 16.7909 10.4999 16.793 10.3784C16.7952 10.257 16.8444 10.1411 16.9302 10.0553C17.0161 9.96938 17.132 9.92018 17.2534 9.91804C17.3749 9.9159 17.4924 9.96098 17.5813 10.0438L23.2063 15.6688C23.294 15.7567 23.3433 15.8758 23.3433 16C23.3433 16.1242 23.294 16.2434 23.2063 16.3313Z" fill="#4365A7"/>
</svg>
