<svg width="32" height="30" viewBox="0 0 32 30" fill="none" xmlns="http://www.w3.org/2000/svg">
<path d="M16.0001 5.03505C16.0001 4.37384 15.8698 3.71911 15.6168 3.10824C15.3638 2.49736 14.9929 1.94231 14.5254 1.47477C14.0578 1.00722 13.5028 0.636349 12.8919 0.383317C12.281 0.130285 11.6263 5.04884e-05 10.9651 5.04884e-05H6.03508C5.36848 -0.00852587 4.70681 0.115362 4.08846 0.364526C3.47012 0.613689 2.90742 0.983168 2.433 1.45152C1.95858 1.91988 1.58189 2.47778 1.32479 3.09287C1.06769 3.70796 0.935303 4.36798 0.935303 5.03463C0.935303 5.70129 1.06769 6.36131 1.32479 6.9764C1.58189 7.59148 1.95858 8.14939 2.433 8.61774C2.90742 9.0861 3.47012 9.45558 4.08846 9.70474C4.70681 9.9539 5.36848 10.0778 6.03508 10.0692H7.00008V12.5C7.00008 12.5 16.0001 11.285 16.0001 5.03505ZM11.4167 18.3334C11.4167 20.175 9.92508 21.6667 8.08341 21.6667C6.24174 21.6667 4.75008 20.175 4.75008 18.3334C4.75008 16.4917 6.24174 15 8.08341 15C9.92508 15 11.4167 16.4917 11.4167 18.3334ZM8.08341 23.3334C5.71924 23.3334 1.00008 24.525 1.00008 26.8892V30H15.1667V26.8892C15.1667 24.5242 10.4476 23.3334 8.08341 23.3334ZM23.9167 21.6667C25.7584 21.6667 27.2501 20.175 27.2501 18.3334C27.2501 16.4917 25.7584 15 23.9167 15C22.0751 15 20.5834 16.4917 20.5834 18.3334C20.5834 20.175 22.0751 21.6667 23.9167 21.6667ZM23.9167 23.3334C21.5526 23.3334 16.8334 24.525 16.8334 26.8892V30H31.0001V26.8892C31.0001 24.5242 26.2809 23.3334 23.9167 23.3334ZM22.7017 0.833384C21.3664 0.833384 20.0857 1.36386 19.1415 2.3081C18.1972 3.25235 17.6667 4.53302 17.6667 5.86838C17.6667 12.1184 25.6667 13.3334 25.6667 13.3334V10.9025H25.9651C26.6317 10.9111 27.2933 10.7872 27.9117 10.5381C28.53 10.2889 29.0927 9.91943 29.5672 9.45108C30.0416 8.98272 30.4183 8.42481 30.6754 7.80973C30.9325 7.19464 31.0648 6.53462 31.0648 5.86797C31.0648 5.20131 30.9325 4.54129 30.6754 3.9262C30.4183 3.31112 30.0416 2.75321 29.5672 2.28486C29.0927 1.8165 28.53 1.44702 27.9117 1.19786C27.2933 0.948695 26.6317 0.824807 25.9651 0.833384H22.7017Z" fill="#26D958"/>
</svg>
