<svg width="40" height="40" viewBox="0 0 40 40" fill="none" xmlns="http://www.w3.org/2000/svg">
<ellipse cx="20" cy="18.5" rx="12" ry="14.5" fill="#334D7F"/>
<path d="M31.6667 5H24.7C24 3.06667 22.1667 1.66667 20 1.66667C17.8333 1.66667 16 3.06667 15.3 5H8.33333C6.5 5 5 6.5 5 8.33333V31.6667C5 33.5 6.5 35 8.33333 35H31.6667C33.5 35 35 33.5 35 31.6667V8.33333C35 6.5 33.5 5 31.6667 5ZM20 4.58333C20.6833 4.58333 21.25 5.15 21.25 5.83333C21.25 6.51667 20.6833 7.08333 20 7.08333C19.3167 7.08333 18.75 6.51667 18.75 5.83333C18.75 5.15 19.3167 4.58333 20 4.58333ZM15.1667 28.3333H11.6667V24.7667L21.6 14.8333L25.1333 18.3667L15.1667 28.3333ZM28.0833 15.45L26.3167 17.2167L22.7833 13.6833L24.55 11.9167C24.8833 11.5833 25.4 11.5833 25.7333 11.9167L28.0833 14.2667C28.4167 14.6 28.4167 15.1167 28.0833 15.45Z" fill="white"/>
</svg>
