<svg width="52" height="58" viewBox="0 0 52 58" fill="none" xmlns="http://www.w3.org/2000/svg">
<path d="M25.9999 31.9167C27.6107 31.9167 28.9166 30.6108 28.9166 29C28.9166 27.3892 27.6107 26.0833 25.9999 26.0833C24.3891 26.0833 23.0833 27.3892 23.0833 29C23.0833 30.6108 24.3891 31.9167 25.9999 31.9167Z" fill="#334D7F"/>
<path d="M39.125 29C39.125 36.875 37.5267 43.9333 35.0067 48.9733C32.4458 54.095 29.1792 56.7083 26 56.7083C22.8208 56.7083 19.5542 54.095 16.9933 48.9733C14.4733 43.9333 12.875 36.875 12.875 29C12.875 21.125 14.4733 14.0667 16.9933 9.02959C19.5542 3.905 22.8208 1.29167 26 1.29167C29.1792 1.29167 32.4458 3.905 35.0067 9.02959C37.5267 14.0638 39.125 21.1221 39.125 29Z" stroke="#334D7F" stroke-width="2"/>
<path d="M32.5624 40.3663C25.7403 44.3038 18.8278 46.4504 13.2074 46.7858C7.49076 47.13 3.59117 45.6046 2.00451 42.8542C0.414923 40.1008 1.04201 35.965 4.20076 31.1846C7.30117 26.4888 12.6153 21.5713 19.4374 17.6338C26.2595 13.6963 33.172 11.5496 38.7924 11.2142C44.5091 10.87 48.4087 12.3954 49.9953 15.1458C51.5849 17.8963 50.9578 22.035 47.7991 26.8125C44.6987 31.5142 39.3845 36.4288 32.5624 40.3663Z" stroke="#334D7F" stroke-width="2"/>
<path d="M32.5624 17.6338C25.7403 13.6963 18.8278 11.5496 13.2074 11.2142C7.49076 10.87 3.59117 12.3954 2.00451 15.1458C0.414923 17.8963 1.04201 22.035 4.20076 26.8125C7.30117 31.5142 12.6153 36.4288 19.4374 40.3663C26.2595 44.3038 33.172 46.4504 38.7924 46.7858C44.5091 47.13 48.4087 45.6046 49.9953 42.8542C51.5849 40.1038 50.9578 35.965 47.7991 31.1875C44.6987 26.4858 39.3845 21.5713 32.5624 17.6338Z" stroke="#334D7F" stroke-width="2"/>
</svg>
