<svg width="36" height="36" viewBox="0 0 36 36" fill="none" xmlns="http://www.w3.org/2000/svg">
<path d="M15.0834 5.08329C15.4149 5.08329 15.7329 5.21499 15.9673 5.44941C16.2017 5.68383 16.3334 6.00177 16.3334 6.33329V19.6666H29.6667C29.9688 19.6666 30.2607 19.776 30.4883 19.9746C30.716 20.1731 30.864 20.4474 30.9051 20.7466L30.9167 20.9166C30.9167 29.2 24.2001 35.0833 15.9167 35.0833C11.9385 35.0833 8.12319 33.5029 5.31015 30.6899C2.4971 27.8768 0.916748 24.0615 0.916748 20.0833C0.916748 11.8 6.80008 5.08329 15.0834 5.08329ZM20.0834 0.916626C24.0617 0.916626 27.877 2.49698 30.69 5.31002C33.5031 8.12307 35.0834 11.9384 35.0834 15.9166C35.0834 16.2481 34.9517 16.5661 34.7173 16.8005C34.4829 17.0349 34.1649 17.1666 33.8334 17.1666H20.0834C19.7519 17.1666 19.434 17.0349 19.1995 16.8005C18.9651 16.5661 18.8334 16.2481 18.8334 15.9166V2.16663C18.8334 1.83511 18.9651 1.51716 19.1995 1.28274C19.434 1.04832 19.7519 0.916626 20.0834 0.916626Z" fill="#D92626"/>
</svg>
