<svg width="40" height="40" viewBox="0 0 40 40" fill="none" xmlns="http://www.w3.org/2000/svg">
<g clip-path="url(#clip0_19_533)">
<mask id="mask0_19_533" style="mask-type:luminance" maskUnits="userSpaceOnUse" x="0" y="0" width="40" height="40">
<path d="M0 0H40V40H0V0Z" fill="white"/>
<path fill-rule="evenodd" clip-rule="evenodd" d="M27.1799 9.1477C27.2596 9.08553 27.3507 9.03969 27.4481 9.01277C27.5456 8.98585 27.6473 8.9784 27.7476 8.99083C27.8479 9.00326 27.9448 9.03533 28.0327 9.08521C28.1206 9.13509 28.1978 9.20181 28.2599 9.28154L30.6399 12.3308C30.7653 12.4917 30.8217 12.696 30.7966 12.8985C30.7715 13.101 30.667 13.2853 30.506 13.4108C30.3451 13.5362 30.1409 13.5926 29.9383 13.5675C29.7358 13.5424 29.5515 13.4379 29.426 13.2769L27.0476 10.2277C26.9853 10.1481 26.9394 10.057 26.9123 9.95967C26.8853 9.86231 26.8777 9.76058 26.89 9.66029C26.9023 9.55999 26.9342 9.4631 26.9839 9.37515C27.0337 9.2872 27.1003 9.20991 27.1799 9.1477Z" fill="black"/>
<path fill-rule="evenodd" clip-rule="evenodd" d="M30.5015 12.1938C30.3397 12.0696 30.1352 12.0148 29.9329 12.0413C29.7307 12.0678 29.5473 12.1736 29.423 12.3354L27.043 15.44C26.919 15.602 26.8644 15.8066 26.8912 16.0089C26.918 16.2111 27.0241 16.3944 27.1861 16.5185C27.3481 16.6425 27.5527 16.6971 27.755 16.6703C27.9572 16.6434 28.1405 16.5374 28.2646 16.3754L30.643 13.2723C30.7672 13.1105 30.8221 12.906 30.7956 12.7038C30.769 12.5015 30.6632 12.3181 30.5015 12.1938Z" fill="black"/>
<path fill-rule="evenodd" clip-rule="evenodd" d="M9.19214 18.9585C9.19214 17.1224 9.92153 15.3615 11.2199 14.0631C12.5182 12.7648 14.2791 12.0354 16.1152 12.0354H29.1921C29.3962 12.0354 29.5918 12.1164 29.7361 12.2607C29.8803 12.405 29.9614 12.6006 29.9614 12.8046C29.9614 13.0086 29.8803 13.2043 29.7361 13.3486C29.5918 13.4928 29.3962 13.5739 29.1921 13.5739H16.1152C14.6871 13.5739 13.3175 14.1412 12.3077 15.151C11.2979 16.1608 10.7306 17.5304 10.7306 18.9585V21.0154C10.7306 21.2194 10.6496 21.4151 10.5053 21.5593C10.361 21.7036 10.1654 21.7846 9.96137 21.7846C9.75736 21.7846 9.5617 21.7036 9.41744 21.5593C9.27318 21.4151 9.19214 21.2194 9.19214 21.0154V18.9585ZM12.8137 30.8523C12.734 30.9145 12.6428 30.9603 12.5454 30.9873C12.448 31.0142 12.3462 31.0216 12.2459 31.0092C12.1456 30.9968 12.0488 30.9647 11.9609 30.9148C11.873 30.8649 11.7958 30.7982 11.7337 30.7185L9.35522 27.6692C9.23666 27.508 9.18564 27.3068 9.213 27.1085C9.24036 26.9102 9.34394 26.7304 9.50174 26.6072C9.65954 26.4841 9.85914 26.4273 10.0581 26.4489C10.2571 26.4706 10.4399 26.5689 10.5675 26.7231L12.9475 29.7723C13.0097 29.852 13.0555 29.9432 13.0825 30.0406C13.1094 30.138 13.1168 30.2398 13.1044 30.3401C13.092 30.4404 13.0599 30.5372 13.01 30.6251C12.9601 30.713 12.8934 30.7902 12.8137 30.8523Z" fill="black"/>
<path fill-rule="evenodd" clip-rule="evenodd" d="M9.49219 27.8061C9.57244 27.8678 9.66408 27.913 9.76183 27.9392C9.85959 27.9654 9.96156 27.972 10.0619 27.9587C10.1622 27.9455 10.2589 27.9125 10.3465 27.8618C10.4341 27.811 10.5108 27.7435 10.5722 27.6631L12.9507 24.56C13.0168 24.4803 13.0661 24.3882 13.0957 24.289C13.1254 24.1898 13.1347 24.0857 13.1231 23.9828C13.1115 23.8799 13.0793 23.7804 13.0284 23.6903C12.9775 23.6002 12.9089 23.5213 12.8267 23.4583C12.7446 23.3953 12.6506 23.3496 12.5503 23.3238C12.4501 23.298 12.3457 23.2927 12.2433 23.3082C12.141 23.3238 12.0428 23.3598 11.9547 23.4141C11.8666 23.4685 11.7904 23.5401 11.7307 23.6246L9.35065 26.7277C9.28923 26.8079 9.24421 26.8994 9.21816 26.997C9.1921 27.0946 9.18553 27.1964 9.19882 27.2965C9.21211 27.3967 9.24499 27.4932 9.29559 27.5807C9.34619 27.6681 9.41198 27.7447 9.49219 27.8061Z" fill="black"/>
<path fill-rule="evenodd" clip-rule="evenodd" d="M30.8029 21.0415C30.8029 21.9507 30.6239 22.8509 30.2759 23.6909C29.928 24.5308 29.4181 25.294 28.7752 25.9369C28.1323 26.5798 27.3691 27.0897 26.5292 27.4376C25.6892 27.7856 24.789 27.9646 23.8798 27.9646H10.8029C10.5989 27.9646 10.4033 27.8836 10.259 27.7393C10.1147 27.5951 10.0337 27.3994 10.0337 27.1954C10.0337 26.9914 10.1147 26.7957 10.259 26.6515C10.4033 26.5072 10.5989 26.4262 10.8029 26.4262H23.8798C25.3079 26.4262 26.6775 25.8589 27.6873 24.849C28.6972 23.8392 29.2645 22.4696 29.2645 21.0415V18.9846C29.2645 18.7806 29.3455 18.585 29.4898 18.4407C29.634 18.2964 29.8297 18.2154 30.0337 18.2154C30.2377 18.2154 30.4334 18.2964 30.5776 18.4407C30.7219 18.585 30.8029 18.7806 30.8029 18.9846V21.0415Z" fill="black"/>
</mask>
<g mask="url(#mask0_19_533)">
<path d="M20 40C31.0457 40 40 31.0457 40 20C40 8.9543 31.0457 0 20 0C8.9543 0 0 8.9543 0 20C0 31.0457 8.9543 40 20 40Z" fill="#AE26D9"/>
</g>
</g>
<defs>
<clipPath id="clip0_19_533">
<rect width="40" height="40" fill="white"/>
</clipPath>
</defs>
</svg>
