<svg width="16" height="16" viewBox="0 0 16 16" fill="none" xmlns="http://www.w3.org/2000/svg">
<path d="M7.99992 1.33333C11.6819 1.33333 14.6666 4.318 14.6666 8C14.6666 11.682 11.6819 14.6667 7.99992 14.6667C4.31792 14.6667 1.33325 11.682 1.33325 8C1.33325 4.318 4.31792 1.33333 7.99992 1.33333ZM7.99992 2.66667C6.58543 2.66667 5.22888 3.22857 4.22868 4.22876C3.22849 5.22896 2.66659 6.58551 2.66659 8C2.66659 9.41449 3.22849 10.771 4.22868 11.7712C5.22888 12.7714 6.58543 13.3333 7.99992 13.3333C9.41441 13.3333 10.771 12.7714 11.7712 11.7712C12.7713 10.771 13.3333 9.41449 13.3333 8C13.3333 6.58551 12.7713 5.22896 11.7712 4.22876C10.771 3.22857 9.41441 2.66667 7.99992 2.66667ZM7.99992 4C8.16321 4.00002 8.32081 4.05997 8.44283 4.16848C8.56486 4.27698 8.64281 4.4265 8.66192 4.58867L8.66658 4.66667V7.724L10.4713 9.52866C10.5908 9.64864 10.6602 9.80962 10.6654 9.97892C10.6706 10.1482 10.6111 10.3131 10.4991 10.4402C10.3871 10.5672 10.2309 10.6469 10.0623 10.6629C9.89365 10.679 9.72525 10.6303 9.59125 10.5267L9.52858 10.4713L7.52858 8.47133C7.42497 8.36763 7.35843 8.23267 7.33925 8.08733L7.33325 8V4.66667C7.33325 4.48985 7.40349 4.32029 7.52851 4.19526C7.65354 4.07024 7.82311 4 7.99992 4Z" fill="#808080"/>
</svg>
