<svg xmlns="http://www.w3.org/2000/svg" viewBox="0 0 279.06 74.81"><defs><style>.cls-1{fill:#808285;}</style></defs><title>Aavishkar HQ logo transparentAsset 7ayata name only</title><g id="Layer_2" data-name="Layer 2"><g id="Layer_2-2" data-name="Layer 2"><path class="cls-1" d="M20.54,69.4,12.81,92.91H2.8L28.24,18.1H39.86L65.41,92.91H55.07l-8-23.51Zm24.57-7.56L37.7,40.31C36.08,35.42,35,31,33.85,26.67h-.26c-1.07,4.37-2.24,8.94-3.71,13.51L22.51,61.84Z" transform="translate(-2.8 -18.1)"/><path class="cls-1" d="M84.3,92.91V61.2L60.58,18.1H71.64L82.15,38.76C85,44.44,87.29,49,89.59,54.2h.22c2.06-4.92,4.62-9.82,7.5-15.49L108.1,18.1h11L94,61.05V92.91Z" transform="translate(-2.8 -18.1)"/><path class="cls-1" d="M130.77,69.4,123,92.91H113L138.46,18.1h11.62l25.55,74.81H165.3l-8-23.51Zm24.56-7.56-7.4-21.53c-1.63-4.89-2.75-9.35-3.86-13.64h-.26c-1.07,4.37-2.24,8.94-3.71,13.51l-7.37,21.66Z" transform="translate(-2.8 -18.1)"/><path class="cls-1" d="M192.29,26.26H169.5V18.1h55.4v8.16H202V92.91h-9.71Z" transform="translate(-2.8 -18.1)"/><path class="cls-1" d="M237,69.4l-7.73,23.51h-10L244.69,18.1h11.62l25.55,74.81H271.52l-8-23.51Zm24.57-7.56-7.41-21.53c-1.62-4.89-2.74-9.35-3.85-13.64H250C249,31,247.8,35.61,246.33,40.18L239,61.84Z" transform="translate(-2.8 -18.1)"/></g></g></svg>