<svg width="21" height="21" viewBox="0 0 21 21" fill="none" xmlns="http://www.w3.org/2000/svg">
<path d="M0.000739459 5.579C0.000739459 4.10726 -9.26401e-05 2.63549 0.00120174 1.16374C0.00166401 0.606795 0.383721 0.16482 0.950904 0.0630937C1.03168 0.0485954 1.11578 0.0468687 1.19835 0.0468091C3.19168 0.0458267 5.18499 0.0458565 7.17833 0.0457969C7.56449 0.0457969 7.95086 0.0533587 8.33677 0.0439214C8.63324 0.0366871 8.87871 0.144487 9.08427 0.333024C9.23747 0.473512 9.32808 0.662496 9.34281 0.86577C9.36225 1.13433 9.35369 1.4048 9.35692 1.67446C9.35942 1.88244 9.36352 2.09045 9.36355 2.29842C9.36404 4.90151 9.36339 7.50463 9.3649 10.1077C9.36503 10.3342 9.32234 10.546 9.18107 10.7311C8.97838 10.9965 8.70462 11.1283 8.36293 11.1283C7.75837 11.1283 7.15383 11.1284 6.54927 11.1285C4.77011 11.1286 2.99099 11.1277 1.21184 11.1299C0.948346 11.1302 0.703401 11.0787 0.488442 10.9283C0.167591 10.7037 0.00166401 10.3988 0.000462093 10.0143C-0.000678191 9.65386 0.000647003 9.29343 0.000677822 8.93302C0.000739459 7.81502 0.000677822 6.69704 0.000739459 5.57903V5.579ZM6.57404 7.05444C6.52276 7.05444 6.48233 7.05444 6.44189 7.05444C5.92384 7.05444 5.40578 7.05444 4.88772 7.05435C4.63809 7.05435 4.40146 7.00103 4.17976 6.88972C3.56135 6.57927 3.24096 5.90544 3.40039 5.2523C3.56095 4.59455 4.16043 4.12792 4.86319 4.12155C5.39157 4.11676 5.92004 4.12048 6.44846 4.12039C6.48834 4.12039 6.52822 4.12039 6.568 4.12039V0.862793H6.4251C5.04357 0.862793 3.66207 0.862793 2.28054 0.862793C1.9179 0.862793 1.55522 0.86449 1.19261 0.861483C1.0616 0.860412 0.946589 0.893249 0.887418 1.00927C0.854226 1.07434 0.845721 1.1566 0.845536 1.23118C0.839927 3.4596 0.83629 5.68802 0.833763 7.91645C0.833424 8.22302 0.842053 8.52957 0.843563 8.83615C0.84421 8.96923 0.834996 9.10233 0.83441 9.23547C0.833578 9.42838 0.836937 9.62132 0.837615 9.81427C0.837893 9.89009 0.829972 9.96633 0.835889 10.0417C0.849357 10.2129 0.987054 10.3143 1.2042 10.3145C1.94622 10.3153 2.6882 10.3137 3.43022 10.3153C4.05171 10.3167 4.67316 10.3233 5.29461 10.3239C5.69153 10.3243 6.08847 10.3183 6.48538 10.3146C6.51222 10.3144 6.53903 10.3096 6.57401 10.3061V7.05447L6.57404 7.05444ZM8.50118 6.23839C8.51111 6.21624 8.5161 6.21023 8.51613 6.20422C8.51755 5.80389 8.51786 5.40356 8.52038 5.00327C8.52079 4.93887 8.48232 4.93685 8.43301 4.93685C7.24139 4.93736 6.04973 4.93572 4.8581 4.93849C4.58767 4.93911 4.34645 5.11068 4.2511 5.3517C4.07858 5.78772 4.40378 6.23678 4.89724 6.23759C6.06471 6.23946 7.23217 6.23833 8.39964 6.23839C8.43379 6.23839 8.46793 6.23839 8.50122 6.23839H8.50118ZM7.43043 7.05884V10.3147C7.73408 10.3147 8.03025 10.3158 8.32638 10.3142C8.47933 10.3134 8.51977 10.2713 8.5198 10.1197C8.52005 9.13603 8.51999 8.15244 8.51965 7.16882C8.51965 7.13339 8.51589 7.09799 8.51367 7.05881H7.4304L7.43043 7.05884ZM8.51995 4.11393C8.51995 4.07195 8.51986 4.03611 8.51995 4.00029C8.52282 3.02435 8.52572 2.04841 8.52855 1.07247C8.52904 0.900126 8.49487 0.866306 8.32034 0.863716C8.0488 0.859697 7.7772 0.857077 7.50575 0.849783C7.42966 0.847729 7.41505 0.8775 7.41591 0.944484C7.42094 1.33058 7.42282 1.71674 7.42331 2.10286C7.42411 2.73311 7.42306 3.36335 7.42278 3.99362C7.42278 4.03254 7.42278 4.07142 7.42278 4.11396H8.51995V4.11393Z" fill="white"/>
<path d="M17.1651 7.73425H19.0079C19.0079 7.92793 19.011 8.11418 19.0063 8.30022C19.0046 8.36958 19.0277 8.40909 19.0925 8.44011C19.6953 8.72841 20.1224 9.19298 20.4154 9.76067C21.1491 11.182 21.18 12.6396 20.5739 14.1082C20.3305 14.6979 19.9515 15.1997 19.4096 15.5733C19.3116 15.6409 19.2069 15.7011 19.0994 15.7534C19.033 15.7857 19.0127 15.8249 19.0143 15.8933C19.0185 16.0764 19.0157 16.2596 19.0157 16.4606C18.8851 16.4606 18.762 16.4666 18.6399 16.4587C18.5419 16.4525 18.5102 16.4798 18.511 16.579C18.5159 17.1663 18.5143 17.7537 18.5132 18.341C18.5104 19.827 17.2983 20.999 15.7627 20.9993C12.8401 20.9999 9.91756 21 6.99502 20.9992C5.66159 20.9989 4.56313 20.1396 4.28934 18.8779C4.25279 18.7094 4.23627 18.5338 4.23602 18.3615C4.23251 16.0254 4.2335 13.6894 4.23362 11.3533C4.23362 11.3239 4.23661 11.2945 4.23858 11.2586H5.07881C5.07881 11.3081 5.07881 11.3505 5.07881 11.3929C5.07881 13.6823 5.08113 15.9716 5.07684 18.261C5.07601 18.7033 5.18163 19.108 5.46392 19.4593C5.84579 19.9345 6.35168 20.1797 6.97578 20.1835C7.62867 20.1875 8.28159 20.1845 8.93451 20.1845C11.2145 20.1845 13.4945 20.1844 15.7746 20.1846C16.8162 20.1847 17.663 19.3739 17.6675 18.3683C17.6702 17.771 17.6682 17.1736 17.6683 16.5762C17.6683 16.5434 17.6683 16.5105 17.6683 16.4638H17.1665C17.1665 16.2575 17.1693 16.065 17.164 15.8728C17.163 15.8376 17.1384 15.7859 17.109 15.7713C16.4675 15.4524 16.0318 14.9466 15.7157 14.336C15.3108 13.5538 15.1645 12.719 15.2001 11.8509C15.2231 11.29 15.3344 10.7455 15.545 10.2213C15.7032 9.82781 15.9068 9.45675 16.1946 9.13838C16.4559 8.84948 16.7424 8.58375 17.1093 8.41534C17.1362 8.40295 17.162 8.35785 17.1627 8.3274C17.1675 8.13151 17.1652 7.93544 17.1652 7.73433L17.1651 7.73425ZM20.1149 11.6803C20.1173 11.6607 20.1205 11.6508 20.1195 11.6413C20.0428 10.9224 19.835 10.2483 19.3524 9.68104C19.2055 9.50846 19.0293 9.34814 18.8366 9.22644C18.6683 9.12016 18.4592 9.0727 18.2655 9.00655C18.206 8.98625 18.1814 8.96071 18.1833 8.90093C18.1864 8.80429 18.1821 8.70742 18.1844 8.61075C18.1859 8.54588 18.15 8.53403 18.0928 8.53436C18.0376 8.53466 17.9973 8.54154 17.9986 8.6079C18.0003 8.69459 17.994 8.78161 17.9994 8.868C18.004 8.94264 17.9797 8.97684 17.9007 9.00137C17.6623 9.07532 17.425 9.14564 17.2208 9.30426C16.9219 9.53653 16.676 9.81173 16.5129 10.1397C16.366 10.4349 16.2617 10.752 16.1628 11.0666C16.1016 11.2613 16.0855 11.4693 16.0476 11.6803H20.1149L20.1149 11.6803ZM20.1229 12.5091H16.0624C16.0657 12.5582 16.0664 12.6007 16.0716 12.6428C16.1148 12.9886 16.1905 13.3277 16.3256 13.651C16.6339 14.3887 17.078 14.9965 17.942 15.1943C17.9706 15.2008 18.0043 15.2519 18.0074 15.2847C18.0164 15.3774 18.0135 15.4714 18.0098 15.5647C18.0073 15.625 18.0289 15.6469 18.0926 15.6467C18.1587 15.6465 18.1751 15.6188 18.1729 15.5613C18.1695 15.4746 18.1761 15.3875 18.1707 15.3011C18.1663 15.2315 18.1921 15.2002 18.2636 15.1847C18.8464 15.0579 19.2578 14.7097 19.5598 14.229C19.658 14.0728 19.7453 13.9083 19.8192 13.7401C19.9905 13.3508 20.0862 12.9425 20.1229 12.5091Z" fill="white"/>
<path d="M15.393 8.53652H14.4898C14.4856 8.5888 14.4781 8.63712 14.4785 8.68538C14.4815 9.03545 14.4895 9.38552 14.4897 9.7356C14.4906 11.1698 14.4941 12.604 14.4868 14.0381C14.4823 14.9287 13.7451 15.6279 12.8237 15.6287C10.9963 15.6304 9.16887 15.6306 7.34146 15.6287C6.44535 15.6278 5.70275 14.9381 5.69116 14.0788C5.67874 13.1579 5.68771 12.2367 5.68759 11.3157C5.68759 11.2994 5.69076 11.283 5.69323 11.2593H6.53272C6.53272 11.3014 6.53272 11.34 6.53272 11.3786C6.53275 12.2563 6.53149 13.134 6.53343 14.0116C6.53429 14.4045 6.79492 14.7181 7.18219 14.7968C7.24571 14.8097 7.31249 14.8117 7.37776 14.8118C9.18447 14.8125 10.9912 14.8127 12.7979 14.8121C13.2962 14.8119 13.6426 14.4751 13.6428 13.991C13.6434 12.2123 13.643 10.4336 13.643 8.65489C13.643 8.62232 13.643 8.58975 13.643 8.54415H12.7234C12.7234 8.49243 12.7234 8.45361 12.7234 8.41479C12.7234 7.99765 12.7218 7.5805 12.7249 7.16338C12.7254 7.093 12.7032 7.05918 12.6335 7.03147C11.1171 6.42802 10.1834 4.98018 10.2916 3.3987C10.3264 2.88989 10.4688 2.40808 10.7138 1.95626C10.8845 1.64137 11.0963 1.35343 11.3576 1.10255C11.708 0.766143 12.1 0.485198 12.5587 0.299488C14.9158 -0.6549 17.4358 0.776176 17.8037 3.1127C18.0657 4.77685 17.1033 6.40244 15.4928 7.03299C15.4218 7.06079 15.4026 7.09533 15.4028 7.16454C15.4038 7.58449 15.4005 8.00443 15.3983 8.42438C15.3981 8.45701 15.3953 8.48961 15.393 8.53649V8.53652ZM14.0667 6.48717C15.7028 6.47851 17.0078 5.20846 17.0006 3.6319C16.9935 2.06903 15.6636 0.805232 14.036 0.814461C12.4196 0.82363 11.1199 2.1038 11.1303 3.67652C11.1405 5.23127 12.4615 6.49569 14.0667 6.48717H14.0667ZM14.5553 7.30289H13.5667C13.5667 7.4064 13.5709 7.51953 13.5652 7.63218C13.5614 7.70717 13.5877 7.72932 13.6651 7.72908C13.9133 7.72831 14.1616 7.73572 14.4098 7.73858C14.4594 7.73915 14.5092 7.73358 14.5553 7.73102V7.30286V7.30289Z" fill="white"/>
<path d="M14.6417 4.01648C14.6049 3.98694 14.5791 3.96616 14.5461 3.93964C14.4083 4.06965 14.2456 4.13785 14.0514 4.11082C13.9245 4.09314 13.8155 4.03815 13.7282 3.94625C13.5258 3.73315 13.5362 3.47337 13.761 3.18328C13.7393 3.15658 13.7166 3.1288 13.6874 3.09287C14.334 2.77081 14.9762 2.4509 15.6185 2.13095L15.6391 2.14658C15.3078 2.76769 14.9764 3.38879 14.6416 4.01648H14.6417Z" fill="white"/>
</svg>
