<svg width="32" height="32" viewBox="0 0 32 32" fill="none" xmlns="http://www.w3.org/2000/svg">
<path fill-rule="evenodd" clip-rule="evenodd" d="M11.333 4H12.6663V2.66666H8.66634V4H9.99967V5.33333H8.55301C8.39574 4.88834 8.08621 4.51327 7.67914 4.27442C7.27206 4.03558 6.79366 3.94834 6.32848 4.02812C5.86331 4.10791 5.44131 4.34958 5.13709 4.71042C4.83287 5.07126 4.66602 5.52803 4.66602 6C4.66602 6.47197 4.83287 6.92874 5.13709 7.28958C5.44131 7.65042 5.86331 7.89209 6.32848 7.97187C6.79366 8.05166 7.27206 7.96441 7.67914 7.72557C8.08621 7.48673 8.39574 7.11166 8.55301 6.66666H9.99967V8.05533C9.06763 8.21315 8.22155 8.69585 7.61141 9.4179C7.00126 10.1399 6.66646 11.0547 6.66634 12V28.6667C6.66634 28.8435 6.73658 29.013 6.8616 29.1381C6.98663 29.2631 7.1562 29.3333 7.33301 29.3333H13.9997C14.1765 29.3333 14.3461 29.2631 14.4711 29.1381C14.5961 29.013 14.6663 28.8435 14.6663 28.6667V12C14.6662 11.0547 14.3314 10.1399 13.7213 9.4179C13.1111 8.69585 12.2651 8.21315 11.333 8.05533V6.66666H14.6663V5.33333H11.333V4ZM10.6663 9.33333C9.9591 9.33333 9.28082 9.61428 8.78072 10.1144C8.28063 10.6145 7.99967 11.2928 7.99967 12V13.3333H13.333V12C13.333 11.2928 13.0521 10.6145 12.552 10.1144C12.0519 9.61428 11.3736 9.33333 10.6663 9.33333ZM7.99967 28V14.6667H13.333V28H7.99967ZM5.99967 6C5.99967 5.82319 6.06991 5.65362 6.19494 5.52859C6.31996 5.40357 6.48953 5.33333 6.66634 5.33333C6.84315 5.33333 7.01272 5.40357 7.13775 5.52859C7.26277 5.65362 7.33301 5.82319 7.33301 6C7.33301 6.17681 7.26277 6.34638 7.13775 6.4714C7.01272 6.59643 6.84315 6.66666 6.66634 6.66666C6.48953 6.66666 6.31996 6.59643 6.19494 6.4714C6.06991 6.34638 5.99967 6.17681 5.99967 6ZM17.333 14C17.333 13.2928 17.614 12.6145 18.1141 12.1144C18.6142 11.6143 19.2924 11.3333 19.9997 11.3333C20.7069 11.3333 21.3852 11.6143 21.8853 12.1144C22.3854 12.6145 22.6663 13.2928 22.6663 14V18C22.6663 18.7072 22.3854 19.3855 21.8853 19.8856C21.3852 20.3857 20.7069 20.6667 19.9997 20.6667C19.2924 20.6667 18.6142 20.3857 18.1141 19.8856C17.614 19.3855 17.333 18.7072 17.333 18V14ZM19.9997 12.6667C19.6461 12.6667 19.3069 12.8071 19.0569 13.0572C18.8068 13.3072 18.6663 13.6464 18.6663 14V18C18.6663 18.3536 18.8068 18.6928 19.0569 18.9428C19.3069 19.1929 19.6461 19.3333 19.9997 19.3333C20.3533 19.3333 20.6924 19.1929 20.9425 18.9428C21.1925 18.6928 21.333 18.3536 21.333 18V14C21.333 13.6464 21.1925 13.3072 20.9425 13.0572C20.6924 12.8071 20.3533 12.6667 19.9997 12.6667ZM25.333 17.3333H23.333V16H25.333C25.8634 16 26.3721 16.2107 26.7472 16.5858C27.1223 16.9609 27.333 17.4696 27.333 18C27.333 18.5304 27.1223 19.0391 26.7472 19.4142C26.3721 19.7893 25.8634 20 25.333 20C25.1562 20 24.9866 20.0702 24.8616 20.1953C24.7366 20.3203 24.6663 20.4899 24.6663 20.6667V21.3333H27.333V22.6667H23.9997C23.8229 22.6667 23.6533 22.5964 23.5283 22.4714C23.4032 22.3464 23.333 22.1768 23.333 22V20.6667C23.333 20.1362 23.5437 19.6275 23.9188 19.2525C24.2939 18.8774 24.8026 18.6667 25.333 18.6667C25.5098 18.6667 25.6794 18.5964 25.8044 18.4714C25.9294 18.3464 25.9997 18.1768 25.9997 18C25.9997 17.8232 25.9294 17.6536 25.8044 17.5286C25.6794 17.4036 25.5098 17.3333 25.333 17.3333Z" fill="#E41D1D"/>
</svg>
