<svg width="32" height="32" viewBox="0 0 32 32" fill="none" xmlns="http://www.w3.org/2000/svg">
<path d="M20.7998 0.0163145C21.568 0.0693797 22.2996 0.254193 22.9803 0.616501C23.6926 0.995277 24.2606 1.51861 24.6594 2.23224C25.3481 3.46428 26.2276 4.57931 27.2653 5.53583C28.0426 6.25605 28.8953 6.876 29.7948 7.4341C30.4898 7.86594 31.0473 8.43355 31.4329 9.16037C31.6743 9.61776 31.8317 10.1148 31.8974 10.6279C32.0386 11.6892 31.8422 12.7007 31.4585 13.6859C31.2778 14.1395 31.0616 14.5782 30.8121 14.9979C30.7817 15.0502 30.7477 15.1007 30.7024 15.175C30.6855 15.0931 30.676 15.0323 30.6607 14.9734C30.5729 14.644 30.6036 14.3146 30.6607 13.9853C30.7419 13.5095 30.807 13.0308 30.8644 12.5514C30.9164 12.1123 30.9577 11.6731 30.9376 11.2317C30.9138 10.6868 30.7598 10.1891 30.3889 9.77519C30.1845 9.55454 29.9555 9.35807 29.7063 9.18964C29.2015 8.83685 28.6612 8.54334 28.1231 8.24581C27.6714 7.99622 27.2086 7.76786 26.7726 7.489C26.3431 7.21905 25.9445 6.90266 25.5841 6.54553C25.091 6.0471 24.6922 5.46349 24.407 4.82293C24.1439 4.24067 23.8081 3.70526 23.3571 3.24927C22.8022 2.6897 22.1419 2.31569 21.3522 2.22676C20.423 2.12209 19.5598 2.31898 18.8036 2.89208C18.3577 3.22987 18.0633 3.68404 17.8471 4.19346C17.6609 4.63262 17.5603 5.09411 17.4791 5.56181C17.3851 6.10271 17.32 6.64727 17.2596 7.19256C17.2314 7.4535 17.2135 7.71589 17.1945 7.97793C17.1586 8.46905 17.1241 8.9603 17.091 9.45167C17.079 9.62953 17.0682 9.80752 17.0584 9.98562C17.0255 10.5803 16.9783 11.1739 16.9201 11.7671C16.8543 12.4394 16.7632 13.1077 16.6323 13.7705C16.5521 14.1756 16.457 14.5756 16.3414 14.973C16.3005 15.1128 16.2632 15.2533 16.2683 15.4008C16.2734 15.6347 16.393 15.7778 16.6184 15.829C16.7843 15.8633 16.9549 15.8693 17.1228 15.8466C17.4279 15.8122 17.7329 15.8221 18.0373 15.8374C18.4126 15.8561 18.7879 15.8506 19.1632 15.859C20.8093 15.8956 22.458 15.8616 24.1052 15.8909C24.6395 15.9004 25.1739 15.9189 25.7085 15.9465C26.3216 15.978 26.9346 16.0197 27.5455 16.0848C28.1725 16.1511 28.7859 16.2748 29.3745 16.5159C30.4324 16.9507 31.171 17.7035 31.6121 18.7535C31.7928 19.1831 31.9267 19.6278 31.9757 20.0929C32.0081 20.411 32.0081 20.7315 31.9757 21.0495C31.925 21.578 31.7943 22.0956 31.588 22.5848C31.3458 23.1579 31.017 23.6724 30.5637 24.1035C30.3376 24.3157 30.0856 24.4985 29.8138 24.6477C28.9778 25.1166 28.1931 25.6719 27.4727 26.3045C26.7094 26.9805 26.0209 27.7367 25.4191 28.5599C25.1294 28.953 24.8591 29.3592 24.6012 29.7738C24.2628 30.318 23.844 30.7883 23.3209 31.1597C22.7909 31.536 22.1822 31.7863 21.5409 31.8917C21.1944 31.9542 20.8422 31.9788 20.4903 31.9649C19.7397 31.9244 19.0013 31.7577 18.3062 31.4715C17.8707 31.2944 17.4496 31.0839 17.0467 30.8417C17.0149 30.8227 16.9842 30.8011 16.9516 30.7802C16.9648 30.7235 17.0149 30.7242 17.0496 30.7118C17.358 30.6077 17.6892 30.5908 18.0066 30.6631C18.3105 30.7264 18.5973 30.8483 18.8977 30.9215C19.6896 31.114 20.4834 31.1568 21.2706 30.8981C21.929 30.6822 22.4342 30.2639 22.834 29.7072C22.9909 29.4848 23.1309 29.2509 23.2529 29.0075C23.6589 28.213 24.0799 27.4272 24.591 26.6935C25.0906 25.9762 25.666 25.331 26.3691 24.8055C26.8396 24.4537 27.3538 24.1647 27.8989 23.9458C28.9491 23.522 29.5406 22.7341 29.7279 21.6318C29.8546 20.9304 29.7932 20.208 29.5501 19.5381C29.3207 18.9097 28.899 18.438 28.3261 18.0976C27.8506 17.8158 27.3348 17.6534 26.7982 17.5487C26.2049 17.4316 25.6064 17.3496 25.0058 17.2881C24.4227 17.2284 23.8386 17.1813 23.2536 17.1469C22.6683 17.1125 22.083 17.0766 21.4978 17.0341C20.8898 16.9902 20.2822 16.9416 19.6772 16.8662C18.774 16.7538 17.88 16.5932 17.0068 16.3355C16.8816 16.2953 16.7509 16.275 16.6195 16.2751C16.374 16.2803 16.2204 16.4076 16.1842 16.6484C16.1613 16.7874 16.1565 16.9287 16.1699 17.0689C16.1879 17.2465 16.194 17.4252 16.1882 17.6036C16.1428 19.0726 16.1516 20.5423 16.1487 22.012C16.1487 22.3502 16.156 22.6887 16.1443 23.0261C16.1256 23.5564 16.137 24.0874 16.1168 24.6173C16.0949 25.2029 16.0708 25.7884 16.0331 26.374C16.0016 26.8651 15.965 27.3566 15.8985 27.8448C15.784 28.6865 15.5513 29.4869 15.0641 30.1962C14.5885 30.8882 13.9374 31.3548 13.1641 31.66C12.786 31.8141 12.39 31.9202 11.9855 31.9758C11.9489 31.993 11.9123 31.9828 11.8758 31.9857C11.8183 31.993 11.7583 31.9696 11.7027 32H11.251C11.1877 31.9693 11.1204 31.993 11.0556 31.9857H10.853C10.3336 31.966 9.84924 31.8068 9.37516 31.6091C8.78268 31.3647 8.25118 30.9929 7.81832 30.52C7.63145 30.3088 7.46922 30.077 7.33473 29.8291C6.81009 28.9058 6.18292 28.0447 5.46514 27.2622C4.49321 26.2009 3.35411 25.3507 2.14514 24.5822C0.980068 23.8419 0.270052 22.785 0.0717885 21.4111C-0.0470963 20.5866 0.0417918 19.7716 0.281025 18.9741C0.476909 18.3212 0.753521 17.6953 1.10444 17.111C1.12488 17.074 1.14748 17.0382 1.17211 17.0038C1.23905 16.917 1.28844 16.9207 1.33416 17.0239C1.39247 17.1677 1.42551 17.3205 1.43183 17.4755C1.46109 17.8748 1.35318 18.2488 1.22845 18.6188C1.05803 19.1226 0.975135 19.6519 0.98336 20.1837C1.00275 21.3954 1.53206 22.3271 2.5669 22.965C3.02269 23.2468 3.51213 23.4664 3.97926 23.727C4.79462 24.1778 5.58073 24.6719 6.27575 25.2973C7.08627 26.0247 7.72062 26.9272 8.13072 27.9363C8.59491 29.0635 9.47978 29.6124 10.6617 29.738C11.3026 29.806 11.9273 29.738 12.5273 29.5026C13.1568 29.2563 13.614 28.8132 13.94 28.2265C14.2575 27.6545 14.4031 27.0302 14.5073 26.3923C14.6251 25.6695 14.7089 24.9431 14.766 24.213C14.8201 23.5213 14.8607 22.8289 14.905 22.1368C14.9763 21.0228 15.0571 19.9092 15.2411 18.8065C15.338 18.2037 15.4714 17.6073 15.6406 17.0206C15.687 16.864 15.7342 16.7048 15.6969 16.5368C15.6596 16.3688 15.5608 16.2755 15.3981 16.2363C15.2655 16.2039 15.1286 16.1934 14.9927 16.2052C14.5337 16.2459 14.0757 16.2297 13.6155 16.2085C13.133 16.1858 12.6487 16.2151 12.1655 16.2005C10.7063 16.1566 9.2464 16.1953 7.78723 16.1683C7.20744 16.1573 6.62618 16.1353 6.04566 16.0951C5.4377 16.0548 4.82864 16.0219 4.22434 15.9443C3.23668 15.8184 2.30646 15.5333 1.52438 14.8797C0.96324 14.4109 0.576226 13.8184 0.313947 13.1421C0.174578 12.7823 0.0600824 12.4156 0.0187471 12.0292C0.0128943 11.9728 0.01326 11.9172 0.0117968 11.8608C-0.00393227 11.5741 -0.00393227 11.2868 0.0117968 11.0001C0.037037 10.4197 0.194697 9.86998 0.425882 9.34262C0.66292 8.80062 0.982629 8.31096 1.41354 7.89961C1.63604 7.69027 1.88333 7.50899 2.14989 7.35981C3.0745 6.83806 3.93728 6.21355 4.72183 5.49813C5.75521 4.55247 6.60752 3.46226 7.34534 2.27762C7.82673 1.50434 8.44493 0.873775 9.27237 0.473773C9.828 0.206343 10.4326 0.0558749 11.0487 0.031685C12.1355 -0.0173546 13.1498 0.237725 14.1262 0.692988C14.3903 0.815953 14.6441 0.95685 14.8984 1.09848C14.9657 1.13508 15.067 1.16655 15.056 1.25804C15.0436 1.35868 14.932 1.35832 14.8541 1.37991C14.5529 1.45916 14.2365 1.46017 13.9349 1.38284C13.7062 1.32904 13.4842 1.25292 13.2596 1.18448C12.6298 0.989074 11.9646 0.935582 11.3117 1.02785C10.3917 1.15886 9.69195 1.63828 9.16849 2.39254C8.98027 2.67318 8.81196 2.96667 8.66478 3.27086C8.26606 4.05988 7.83112 4.82732 7.31132 5.54351C6.47364 6.69668 5.42819 7.58781 4.09229 8.12541C3.04318 8.5481 2.46997 9.35616 2.30975 10.4563C2.21428 11.1121 2.25085 11.7661 2.47107 12.4028C2.7103 13.0952 3.17121 13.5908 3.79965 13.9443C4.37395 14.2674 5.00459 14.4091 5.64657 14.5148C6.39207 14.6378 7.14232 14.719 7.89551 14.7758C8.45628 14.8178 9.01705 14.8537 9.57818 14.8896C10.635 14.9573 11.6925 15.0235 12.7423 15.1717C13.4725 15.2733 14.1951 15.4227 14.9057 15.619C15.0685 15.6643 15.2301 15.7108 15.4028 15.7031C15.6109 15.6936 15.7276 15.6113 15.7745 15.4071C15.8242 15.1897 15.8088 14.9679 15.788 14.7483C15.7661 14.566 15.7661 14.3817 15.788 14.1994C15.7954 14.1435 15.7993 14.0873 15.7997 14.031C15.8385 12.2425 15.8213 10.4537 15.8301 8.66521C15.8337 7.96182 15.8529 7.25856 15.8875 6.55541C15.931 5.67526 15.9727 4.79365 16.111 3.92045C16.2207 3.22731 16.4355 2.56857 16.806 1.96875C17.1744 1.36869 17.7004 0.881324 18.3266 0.559776C18.8249 0.299573 19.3458 0.102683 19.9058 0.02583C20.0593 0.00605358 20.2141 -0.00238657 20.3689 0.000578171C20.5152 0.0111912 20.6582 -0.00820531 20.7998 0.0163145Z" fill="#898989"/>
</svg>
