<?xml version="1.0" encoding="utf-8"?>
<!-- Generator: Adobe Illustrator 23.0.1, SVG Export Plug-In . SVG Version: 6.00 Build 0)  -->
<svg version="1.1" xmlns="http://www.w3.org/2000/svg" xmlns:xlink="http://www.w3.org/1999/xlink" x="0px" y="0px"
	 viewBox="0 0 595.3 841.9" style="enable-background:new 0 0 595.3 841.9;" xml:space="preserve">
<style type="text/css">
	.st0{fill:#00ABFE;}
	.st1{fill:#3B3838;}
</style>
<g id="Layer_1">
	<g>
		<g>
			<path class="st0" d="M297.5,613.1c-6.2,0.1-13-0.3-19.8-1c-18.3-1.9-35.9-6.3-52.9-13.3c-7.2-2.9-14.1-6.3-20.9-10
				c-13.8-7.5-26.3-16.8-37.8-27.5c-12.8-11.8-23.7-25.1-32.8-39.9c-11.3-18.1-19.2-37.6-24-58.3c-1.7-7.3-2.9-14.6-3.7-22
				c-1-8.9-1.4-17.7-1.1-26.7c0.2-7.2,0.8-14.3,1.8-21.5c1.9-14.1,5.4-27.8,10.3-41.1c4.2-11.3,9.4-22.2,15.7-32.4
				c5.4-8.8,11.4-17.2,18-25c8.9-10.5,18.9-19.8,29.7-28.3c12.7-9.8,26.4-17.8,41.1-24.2c11.2-4.9,22.8-8.6,34.7-11.3
				c6.8-1.5,13.7-2.6,20.6-3.4c8.9-1,17.7-1.4,26.6-1.2c9.4,0.3,18.7,1.1,28,2.7c9.9,1.7,19.7,4.2,29.2,7.4c2.9,1,5.8,2.3,8.7,3.3
				c6,2.1,11.7,4.9,17.3,7.7c4.6,2.3,9,4.8,13.4,7.5c13.4,8.2,25.6,18,36.6,29.2c4.1,4.1,7.7,8.7,11.5,13
				c5.5,6.2,10.2,13.1,14.6,20.1c9,14.2,15.9,29.5,20.9,45.6c3,9.5,5.1,19.2,6.5,29.1c0.9,6.4,1.5,12.8,1.8,19.2
				c0.2,4.1,0.3,8.2,0.2,12.3c-0.1,6.9-0.6,13.7-1.5,20.6c-1.7,14.2-5,27.9-9.8,41.4c-5.2,14.5-12.1,28.3-20.6,41.2
				c-6.4,9.6-13.5,18.7-21.5,27c-12.8,13.3-27.1,24.8-43.2,34c-10.3,5.9-21.1,11-32.3,14.9c-9.9,3.5-20,6.3-30.4,8.1
				c-5.2,0.9-10.4,1.6-15.7,2.1C310.6,612.8,304.4,613.2,297.5,613.1z M276.7,313.4c-0.9,0-1.8,0-2.7,0c-19.3,0-38.6,0-57.9,0
				c-4.1,0-8.1,0-12.2,0c-0.5,0-1.1-0.3-1.5,0.4c1,2.2,2.4,4.1,3.6,6.2c5.4,9.3,10.7,18.5,16.1,27.8c5.4,9.4,10.9,18.8,16.4,28.2
				c0.3,0.5,0.7,1,0.4,1.6c-1.9,2.8-3.5,5.7-5.1,8.6c-13.1,22.5-26.2,45-39.3,67.6c-2.7,4.6-5.3,9.2-8,13.8
				c-11.5,19.8-23.1,39.6-34.6,59.5c-0.2,0.4-0.5,0.7-0.4,1.2c83.2,0,166.4,0,249.7,0c0.1-0.7-0.3-1-0.6-1.5c-1.7-2.9-3.3-5.7-5-8.6
				c-8.4-14.4-16.7-28.8-25.1-43.3c-2.5-4.3-5.3-8.5-7.2-13.1c5.5-9.5,11-19,16.5-28.5c9.4-16.3,18.9-32.5,28.3-48.8
				c7.9-13.6,15.8-27.3,23.7-40.9c5.2-9,10.5-18,15.7-27.1c0.5-0.9,1.3-1.8,1.5-3c-0.6-0.2-1.2-0.1-1.8-0.1c-55.3,0-110.7,0-166,0
				c-0.7,0-1.5,0.1-2.2,0.1C278.2,313.3,277.5,312.6,276.7,313.4z"/>
			<path class="st1" d="M363.2,461.8c-1.6-2.2-2.8-4.7-4.1-7c-6.2-10.8-12.5-21.7-18.7-32.6c-13.3-23.2-26.5-46.3-39.8-69.5
				c-6.4-11.1-12.7-22.3-19.1-33.4c-0.5-0.9-1-1.9-1.6-2.7c-0.5-0.7-0.7-1.3-0.1-2c-0.1-0.6-0.6-0.6-0.9-1c0.7,0,1.5-0.1,2.2-0.1
				c55.3,0,110.7,0,166,0c0.6,0,1.2-0.1,1.8,0.1c-0.2,1.2-1,2-1.5,3c-5.2,9-10.5,18-15.7,27.1c-7.9,13.6-15.8,27.3-23.7,40.9
				c-9.4,16.3-18.9,32.5-28.3,48.8C374.2,442.8,368.7,452.3,363.2,461.8z"/>
			<path class="st1" d="M276.7,313.4c-0.4,0.3-0.8,0.6-1.2,0.9c0.7,1,0.1,1.8-0.4,2.7c-11.7,19.8-23.4,39.6-35.1,59.4
				c-0.3,0.5-0.3,1.2-1.1,1.2c0.2-0.6-0.1-1.1-0.4-1.6c-5.5-9.4-10.9-18.8-16.4-28.2c-5.4-9.3-10.7-18.5-16.1-27.8
				c-1.2-2.1-2.5-4.1-3.6-6.2c0.4-0.6,1-0.4,1.5-0.4c4.1,0,8.1,0,12.2,0c19.3,0,38.6,0,57.9,0C274.9,313.3,275.8,313.4,276.7,313.4z
				"/>
			<path class="st1" d="M276.2,347.6c-1,0.6-1.7,1-2.5,1.5c0.9,1.5,1.7,2.9,2.5,4.2c7.5,12.8,15.1,25.5,22.5,38.3
				c13.3,22.8,26.7,45.5,40.1,68.3c4,6.9,8,13.7,12,20.6c0.6,1,0.6,1.7,0,2.7c-3.7,6.2-7.4,12.5-10.9,18.8
				c-4.1,7.2-8.3,14.4-12.5,21.6c-0.1,0.1-0.2,0.3-0.2,0.4c-0.6,1.5-1.9,1.8-3-0.1c-8-13.9-16.1-27.6-24-41.5
				c-13.2-23-26.5-45.8-39.8-68.8c-3.3-5.7-6.6-11.3-9.8-17c-0.2-0.4-0.4-0.7-0.6-1.2c7-12.4,14.1-24.7,21.2-37.1
				c-0.8-0.6-1.5-1-2.5-1.4c-6.7,11.8-13.5,23.6-20.3,35.6c-1.1-1.5-1.8-3-2.7-4.4c-0.9-1.5-1.8-2.9-2.6-4.4S241,381,241,379
				c1,0.1,1.2-0.6,1.6-1.2c3.8-6.4,7.5-12.8,11.3-19.1c7.7-13,15.3-26,23-39c0.2-0.4,0.4-0.9,1-1.3c28,48.9,55.9,97.8,83.8,146.5
				c-2.7,4.7-5.4,9.3-8.3,14.1C327.5,435.1,301.9,391.4,276.2,347.6z"/>
		</g>
	</g>
	<g id="Layer_2">
	</g>
	<g id="Layer_3">
	</g>
</g>
<g id="Layer_4">
</g>
</svg>
