<svg width="30" height="30" viewBox="0 0 30 30" fill="none" xmlns="http://www.w3.org/2000/svg">
<path d="M22.5 10C22.5 10.663 22.2366 11.2989 21.7678 11.7678C21.2989 12.2366 20.663 12.5 20 12.5C19.337 12.5 18.7011 12.2366 18.2322 11.7678C17.7634 11.2989 17.5 10.663 17.5 10C17.5 9.33696 17.7634 8.70107 18.2322 8.23223C18.7011 7.76339 19.337 7.5 20 7.5C20.663 7.5 21.2989 7.76339 21.7678 8.23223C22.2366 8.70107 22.5 9.33696 22.5 10Z" fill="#00B9D6"/>
<path fill-rule="evenodd" clip-rule="evenodd" d="M14.9288 1.5625H15.0712C17.9575 1.5625 20.2188 1.5625 21.9837 1.8C23.7887 2.0425 25.2138 2.55 26.3325 3.6675C27.4513 4.78625 27.9575 6.21125 28.2 8.0175C28.4375 9.78125 28.4375 12.0425 28.4375 14.9288V15.0387C28.4375 17.425 28.4375 19.3775 28.3075 20.9675C28.1775 22.5675 27.9112 23.9013 27.3137 25.0113C27.0513 25.5 26.7262 25.9387 26.3325 26.3325C25.2138 27.4513 23.7887 27.9575 21.9825 28.2C20.2188 28.4375 17.9575 28.4375 15.0712 28.4375H14.9288C12.0425 28.4375 9.78125 28.4375 8.01625 28.2C6.21125 27.9575 4.78625 27.45 3.6675 26.3325C2.67625 25.3412 2.16375 24.1075 1.8925 22.575C1.62375 21.0712 1.575 19.2 1.565 16.8775C1.5625 16.2863 1.5625 15.6613 1.5625 15.0013V14.9288C1.5625 12.0425 1.5625 9.78125 1.8 8.01625C2.0425 6.21125 2.55 4.78625 3.6675 3.6675C4.78625 2.54875 6.21125 2.0425 8.0175 1.8C9.78125 1.5625 12.0425 1.5625 14.9288 1.5625ZM8.26625 3.6575C6.66875 3.8725 5.705 4.2825 4.99375 4.99375C4.28125 5.70625 3.8725 6.66875 3.6575 8.2675C3.44 9.8925 3.4375 12.0275 3.4375 15V16.055L4.68875 14.96C5.23759 14.4796 5.94853 14.2257 6.67754 14.2498C7.40656 14.274 8.09914 14.5743 8.615 15.09L13.9775 20.4525C14.3936 20.8685 14.9432 21.1245 15.5294 21.1752C16.1157 21.226 16.701 21.0683 17.1825 20.73L17.555 20.4675C18.2496 19.9794 19.0893 19.7415 19.9367 19.7926C20.7841 19.8436 21.5891 20.1808 22.22 20.7488L25.7575 23.9325C26.115 23.185 26.3262 22.2025 26.4387 20.8162C26.5612 19.31 26.5625 17.4325 26.5625 15C26.5625 12.0275 26.56 9.8925 26.3425 8.2675C26.1275 6.66875 25.7175 5.705 25.0062 4.9925C24.2937 4.28125 23.3312 3.8725 21.7325 3.6575C20.1075 3.44 17.9725 3.4375 15 3.4375C12.0275 3.4375 9.89125 3.44 8.26625 3.6575Z" fill="#00B9D6"/>
</svg>
