<svg width="30" height="30" viewBox="0 0 30 30" fill="none" xmlns="http://www.w3.org/2000/svg">
<g id="Group">
<path id="Vector" d="M15 0C23.2845 0 30 6.7155 30 15C30 23.2845 23.2845 30 15 30C6.7155 30 0 23.2845 0 15C0 6.7155 6.7155 0 15 0ZM10.446 9.975L10.3665 10.725L10.3215 11.2245L10.2585 12.1245L10.2225 12.8145L10.1955 13.572L10.1805 14.3955V15.2625L10.1955 16.086L10.2225 16.845L10.2585 17.535L10.3215 18.435L10.428 19.53L10.4475 19.683C10.4807 19.9585 10.5775 20.2225 10.7304 20.4541C10.8832 20.6857 11.0879 20.8786 11.3281 21.0174C11.5684 21.1562 11.8377 21.2373 12.1147 21.254C12.3917 21.2708 12.6687 21.2228 12.924 21.114L13.608 20.811L14.5845 20.3475L15.1695 20.0535L15.8145 19.7175L16.5135 19.338L17.2605 18.915L18 18.48L18.3465 18.27L18.9915 17.865L19.5735 17.49L20.0865 17.1465L21.066 16.4565L21.3315 16.26C21.554 16.0934 21.7346 15.8772 21.8589 15.6286C21.9832 15.38 22.0479 15.1058 22.0478 14.8279C22.0476 14.5499 21.9827 14.2758 21.8581 14.0273C21.7335 13.7789 21.5527 13.5629 21.33 13.3965L20.721 12.9525L20.3085 12.663L19.8285 12.336L18.981 11.784L18.339 11.382L17.634 10.959L16.8855 10.527L16.1685 10.1295L15.498 9.7725L14.883 9.4575L14.073 9.063L13.4145 8.76L13.0695 8.607C13.0221 8.58685 12.9746 8.56685 12.927 8.547C12.6717 8.43731 12.3944 8.38861 12.1171 8.40477C11.8397 8.42093 11.5699 8.5015 11.3291 8.64009C11.0883 8.77869 10.8831 8.97149 10.7298 9.20321C10.5766 9.43493 10.4794 9.69918 10.446 9.975Z" fill="#00B9D6"/>
</g>
</svg>
