<svg width="16" height="19" viewBox="0 0 16 19" fill="none" xmlns="http://www.w3.org/2000/svg">
<path d="M10.8125 16.4062C10.1041 17.4688 9.21873 18 8.15623 18C7.09373 18 6.20831 17.4688 5.49998 16.4062M13.5585 14.8125H2.75392C1.78528 14.8125 1.00004 14.0273 1.00004 13.0586C1.00004 12.7407 1.08643 12.4288 1.24998 12.1562C2.29284 10.4181 2.84373 8.42928 2.84373 6.40231V5.25C2.84373 2.90279 4.74652 1 7.09373 1H9.21873C11.5659 1 13.4687 2.90279 13.4687 5.25V6.40231C13.4687 8.42928 14.0196 10.4181 15.0625 12.1562C15.5608 12.9869 15.2915 14.0642 14.4609 14.5626C14.1883 14.7261 13.8764 14.8125 13.5585 14.8125Z" stroke="black" stroke-width="1.24275" stroke-linecap="round" stroke-linejoin="round"/>
</svg>
