<svg width="40" height="40" viewBox="0 0 40 40" fill="none" xmlns="http://www.w3.org/2000/svg">
<circle cx="20" cy="20" r="20" fill="white"/>
<path fill-rule="evenodd" clip-rule="evenodd" d="M20 19.75C20.1989 19.75 20.3897 19.829 20.5303 19.9697C20.671 20.1103 20.75 20.3011 20.75 20.5V21.25H21.5C21.6989 21.25 21.8897 21.329 22.0303 21.4697C22.171 21.6103 22.25 21.8011 22.25 22C22.25 22.1989 22.171 22.3897 22.0303 22.5303C21.8897 22.671 21.6989 22.75 21.5 22.75H20.75V23.5C20.75 23.6989 20.671 23.8897 20.5303 24.0303C20.3897 24.171 20.1989 24.25 20 24.25C19.8011 24.25 19.6103 24.171 19.4697 24.0303C19.329 23.8897 19.25 23.6989 19.25 23.5V22.75H18.5C18.3011 22.75 18.1103 22.671 17.9697 22.5303C17.829 22.3897 17.75 22.1989 17.75 22C17.75 21.8011 17.829 21.6103 17.9697 21.4697C18.1103 21.329 18.3011 21.25 18.5 21.25H19.25V20.5C19.25 20.3011 19.329 20.1103 19.4697 19.9697C19.6103 19.829 19.8011 19.75 20 19.75Z" fill="#4365A7"/>
<path fill-rule="evenodd" clip-rule="evenodd" d="M19.948 9.25C19.049 9.25 18.3 9.25 17.706 9.33C17.078 9.414 16.511 9.6 16.056 10.055C15.6 10.511 15.414 11.078 15.33 11.705C15.25 12.3 15.25 13.05 15.25 13.948V14.026C13.229 14.092 12.015 14.328 11.172 15.172C10 16.343 10 18.229 10 22C10 25.771 10 27.657 11.172 28.828C12.343 30 14.229 30 18 30H22C25.771 30 27.657 30 28.828 28.828C30 27.657 30 25.771 30 22C30 18.229 30 16.343 28.828 15.172C27.985 14.328 26.771 14.092 24.75 14.026V13.948C24.75 13.05 24.75 12.3 24.67 11.706C24.586 11.078 24.4 10.511 23.944 10.056C23.489 9.6 22.922 9.414 22.294 9.33C21.7 9.25 20.95 9.25 20.052 9.25H19.948ZM23.25 14.002V14C23.25 13.036 23.248 12.388 23.184 11.905C23.121 11.444 23.014 11.246 22.884 11.116C22.754 10.986 22.556 10.879 22.094 10.816C21.612 10.752 20.964 10.75 20 10.75C19.036 10.75 18.388 10.752 17.905 10.817C17.444 10.879 17.246 10.986 17.116 11.117C16.986 11.247 16.879 11.444 16.816 11.905C16.753 12.388 16.75 13.036 16.75 14V14.002C17.142 14 17.558 14 18 14H22C22.442 14 22.858 14 23.25 14.002ZM24 22C24 23.0609 23.5786 24.0783 22.8284 24.8284C22.0783 25.5786 21.0609 26 20 26C18.9391 26 17.9217 25.5786 17.1716 24.8284C16.4214 24.0783 16 23.0609 16 22C16 20.9391 16.4214 19.9217 17.1716 19.1716C17.9217 18.4214 18.9391 18 20 18C21.0609 18 22.0783 18.4214 22.8284 19.1716C23.5786 19.9217 24 20.9391 24 22Z" fill="#4365A7"/>
</svg>
