<svg width="24" height="24" viewBox="0 0 24 24" fill="none" xmlns="http://www.w3.org/2000/svg">
<path d="M18.6278 2.9413H14.5297C14.1179 1.80402 13.0395 0.980469 11.7649 0.980469C10.4904 0.980469 9.41191 1.80402 9.00014 2.9413H4.902C3.82354 2.9413 2.94116 3.82368 2.94116 4.90214V18.628C2.94116 19.7064 3.82354 20.5888 4.902 20.5888H18.6278C19.7063 20.5888 20.5887 19.7064 20.5887 18.628V4.90214C20.5887 3.82368 19.7063 2.9413 18.6278 2.9413ZM11.7649 2.6962C12.1669 2.6962 12.5002 3.02954 12.5002 3.43151C12.5002 3.83348 12.1669 4.16682 11.7649 4.16682C11.3629 4.16682 11.0296 3.83348 11.0296 3.43151C11.0296 3.02954 11.3629 2.6962 11.7649 2.6962ZM8.9217 16.6671H6.86283V14.569L12.7061 8.72576L14.7846 10.8042L8.9217 16.6671ZM16.5199 9.08851L15.4807 10.1278L13.4022 8.04927L14.4415 7.01003C14.6375 6.81395 14.9415 6.81395 15.1375 7.01003L16.5199 8.39242C16.716 8.5885 16.716 8.89243 16.5199 9.08851Z" fill="#4365A7"/>
</svg>
