<svg width="20" height="20" viewBox="0 0 20 20" fill="none" xmlns="http://www.w3.org/2000/svg">
<path fill-rule="evenodd" clip-rule="evenodd" d="M14.5274 0.852644L14.5879 0.869144C15.5962 1.13956 16.3947 1.35314 17.0226 1.58048C17.6652 1.81239 18.1895 2.07731 18.6212 2.48156C19.2496 3.07054 19.6892 3.83264 19.8844 4.67148C20.0192 5.24714 19.9871 5.83381 19.8661 6.50573C19.7497 7.16389 19.5361 7.96231 19.2657 8.96973L18.7743 10.8021C18.5048 11.8096 18.2903 12.608 18.0639 13.2368C17.8311 13.8785 17.5662 14.4028 17.1619 14.8346C16.5922 15.4429 15.8598 15.875 15.0517 16.0794C14.815 16.6222 14.47 17.1109 14.0379 17.5158C13.6062 17.9201 13.0818 18.185 12.4392 18.4178C11.8113 18.6451 11.0129 18.8587 10.0055 19.1291L9.94407 19.1456C8.93574 19.4151 8.13824 19.6287 7.48007 19.747C6.80816 19.8671 6.22149 19.8991 5.64491 19.7653C4.80618 19.5694 4.0444 19.1292 3.45591 18.5003C3.05257 18.0695 2.78674 17.5451 2.55391 16.9026C2.32749 16.2746 2.11391 15.4762 1.84349 14.4679L1.35216 12.6364C1.08266 11.6281 0.868156 10.8306 0.750822 10.1724C0.630739 9.50048 0.598656 8.91381 0.732489 8.33723C0.928373 7.49851 1.3686 6.73672 1.99749 6.14823C2.42832 5.74489 2.95266 5.47906 3.59524 5.24623C4.22316 5.01981 5.02157 4.80623 6.02899 4.53581L6.06016 4.52664L6.74857 4.34331C7.10791 3.06089 7.42324 2.15431 8.03924 1.49706C8.62785 0.86851 9.38963 0.428607 10.2282 0.232977C10.8048 0.099144 11.3906 0.131227 12.0634 0.251311C12.7207 0.368644 13.5191 0.583144 14.5274 0.852644ZM6.33332 5.87781C5.33141 6.14639 4.61366 6.34073 4.06182 6.53964C3.50266 6.74131 3.17541 6.92831 2.93707 7.15198C2.50684 7.55468 2.20569 8.07594 2.07174 8.64981C1.99841 8.96881 1.99932 9.34648 2.10474 9.93039C2.21016 10.5235 2.40907 11.266 2.68866 12.311L3.16349 14.082C3.44307 15.127 3.64291 15.8695 3.84732 16.4351C4.04899 16.9942 4.23599 17.3224 4.45966 17.5607C4.86236 17.991 5.38362 18.2921 5.95749 18.4261C6.27557 18.4994 6.65416 18.4976 7.23807 18.3931C7.83116 18.2876 8.57366 18.0887 9.61866 17.8091C10.6637 17.5286 11.4062 17.3297 11.9727 17.1244C12.5309 16.9227 12.8591 16.7357 13.0974 16.513C13.2239 16.3938 13.3385 16.2655 13.4421 16.1289C13.272 16.1046 13.1027 16.0756 12.9342 16.0418C12.3182 15.919 11.5776 15.721 10.6655 15.4762L10.6123 15.4625C9.60491 15.1921 8.80649 14.9785 8.17857 14.7511C7.53599 14.5192 7.01166 14.2543 6.57991 13.8501C5.9512 13.2612 5.51128 12.4991 5.31582 11.6601C5.18199 11.0845 5.21407 10.4978 5.33416 9.82589C5.45149 9.16773 5.66599 8.36931 5.93549 7.36189L6.33332 5.87781ZM11.8214 1.60523C11.2366 1.49981 10.8589 1.49798 10.5408 1.57223C9.96695 1.70618 9.44569 2.00732 9.04299 2.43756C8.64332 2.86381 8.39674 3.52381 7.96957 5.08948C7.89991 5.34431 7.82657 5.61839 7.74682 5.91631L7.27199 7.68731C6.99241 8.73231 6.79349 9.47481 6.68807 10.0679C6.58266 10.6518 6.58082 11.0304 6.65507 11.3485C6.78903 11.9224 7.09017 12.4436 7.52041 12.8463C7.75874 13.07 8.08691 13.2561 8.64516 13.4586C9.21166 13.6631 9.95416 13.862 10.9992 14.1425C11.9387 14.3946 12.6354 14.5806 13.2019 14.6925C13.7657 14.8052 14.1488 14.8327 14.4623 14.7942C14.5311 14.7851 14.5962 14.7741 14.6603 14.7594C15.2342 14.6254 15.7555 14.3243 16.1582 13.8941C16.3818 13.6557 16.5688 13.3276 16.7705 12.7693C16.9749 12.2028 17.1738 11.4603 17.4543 10.4153L17.9292 8.64431C18.2087 7.59931 18.4077 6.85681 18.5131 6.26373C18.6176 5.67981 18.6203 5.30123 18.5461 4.98314C18.4121 4.40927 18.111 3.88802 17.6807 3.48531C17.4424 3.26164 17.1142 3.07556 16.556 2.87298C15.9886 2.66856 15.247 2.46964 14.202 2.18914C13.157 1.90956 12.4145 1.71064 11.8214 1.60523ZM9.63057 7.98889C9.65397 7.90167 9.69432 7.81991 9.74933 7.74828C9.80433 7.67666 9.8729 7.61657 9.95113 7.57146C10.0294 7.52634 10.1157 7.49708 10.2053 7.48534C10.2948 7.47361 10.3858 7.47963 10.473 7.50306L14.9005 8.68923C15.0717 8.74071 15.2162 8.85689 15.3032 9.01311C15.3902 9.16933 15.4129 9.35329 15.3665 9.52598C15.3201 9.69867 15.2082 9.84648 15.0547 9.93807C14.9011 10.0297 14.7179 10.0578 14.5439 10.0166L10.1164 8.83039C9.94045 8.78313 9.79045 8.66796 9.69936 8.51018C9.60827 8.35239 9.58352 8.1649 9.63057 7.98889ZM8.91832 10.6454C8.94171 10.5581 8.9821 10.4762 9.03716 10.4045C9.09223 10.3328 9.16089 10.2727 9.23922 10.2276C9.31756 10.1824 9.40402 10.1532 9.49367 10.1415C9.58331 10.1299 9.67438 10.136 9.76166 10.1596L12.4172 10.8709C12.5934 10.9181 12.7436 11.0333 12.8348 11.1912C12.926 11.3491 12.9507 11.5367 12.9035 11.7129C12.8564 11.889 12.7412 12.0392 12.5833 12.1304C12.4254 12.2216 12.2377 12.2463 12.0616 12.1991L9.40507 11.4869C9.22912 11.4396 9.07912 11.3245 8.98803 11.1667C8.89693 11.0089 8.87219 10.8214 8.91924 10.6454H8.91832Z" fill="#4D4D4D"/>
</svg>
