<svg width="24" height="24" viewBox="0 0 24 24" fill="none" xmlns="http://www.w3.org/2000/svg">
<circle cx="12" cy="12" r="12" fill="#4365A7"/>
<g clip-path="url(#clip0_20_32)">
<path fill-rule="evenodd" clip-rule="evenodd" d="M9.77028 4.31553C8.2237 4.76539 6.84874 5.67125 5.82502 6.91476C4.8013 8.15826 4.17642 9.68161 4.032 11.2858H7.68914C7.90115 8.84473 8.60892 6.47256 9.76914 4.31439L9.77028 4.31553ZM7.68914 12.7144H4.032C4.17612 14.3186 4.80073 15.8421 5.82425 17.0859C6.84777 18.3296 8.2226 19.2357 9.76914 19.6858C8.60892 17.5276 7.90115 15.1555 7.68914 12.7144ZM11.6023 19.991C10.2158 17.7938 9.36617 15.301 9.12228 12.7144H14.8766C14.6327 15.301 13.7831 17.7938 12.3966 19.991C12.132 20.0038 11.8669 20.0038 11.6023 19.991ZM14.2309 19.6847C15.7772 19.2346 17.1519 18.3287 18.1754 17.0852C19.1989 15.8417 19.8237 14.3184 19.968 12.7144H16.3109C16.0988 15.1555 15.3911 17.5276 14.2309 19.6858V19.6847ZM16.3109 11.2858H19.968C19.8239 9.68156 19.1993 8.15806 18.1757 6.91434C17.1522 5.67063 15.7774 4.76452 14.2309 4.31439C15.3911 6.47255 16.0989 8.84473 16.3109 11.2858ZM11.6023 4.00924C11.8673 3.99627 12.1327 3.99627 12.3977 4.00924C13.7838 6.20651 14.633 8.69931 14.8766 11.2858H9.12343C9.37143 8.68353 10.2229 6.18867 11.6023 4.00924Z" fill="white"/>
</g>
<defs>
<clipPath id="clip0_20_32">
<rect width="16" height="16" fill="white" transform="translate(4 4)"/>
</clipPath>
</defs>
</svg>
