<svg width="24" height="24" viewBox="0 0 24 24" fill="none" xmlns="http://www.w3.org/2000/svg">
<circle cx="12" cy="12" r="12" fill="#4365A7"/>
<path d="M17 6H7C6.73478 6 6.48043 6.10536 6.29289 6.29289C6.10536 6.48043 6 6.73478 6 7V17C6 17.2652 6.10536 17.5196 6.29289 17.7071C6.48043 17.8946 6.73478 18 7 18H13.7931C13.9245 18.0002 14.0545 17.9744 14.1759 17.9241C14.2972 17.8738 14.4074 17.8 14.5 17.7069L17.7069 14.5C17.8 14.4074 17.8738 14.2972 17.9241 14.1759C17.9744 14.0545 18.0002 13.9245 18 13.7931V7C18 6.73478 17.8946 6.48043 17.7071 6.29289C17.5196 6.10536 17.2652 6 17 6ZM10 9.5H14C14.1326 9.5 14.2598 9.55268 14.3536 9.64645C14.4473 9.74022 14.5 9.86739 14.5 10C14.5 10.1326 14.4473 10.2598 14.3536 10.3536C14.2598 10.4473 14.1326 10.5 14 10.5H10C9.86739 10.5 9.74022 10.4473 9.64645 10.3536C9.55268 10.2598 9.5 10.1326 9.5 10C9.5 9.86739 9.55268 9.74022 9.64645 9.64645C9.74022 9.55268 9.86739 9.5 10 9.5ZM12 14.5H10C9.86739 14.5 9.74022 14.4473 9.64645 14.3536C9.55268 14.2598 9.5 14.1326 9.5 14C9.5 13.8674 9.55268 13.7402 9.64645 13.6464C9.74022 13.5527 9.86739 13.5 10 13.5H12C12.1326 13.5 12.2598 13.5527 12.3536 13.6464C12.4473 13.7402 12.5 13.8674 12.5 14C12.5 14.1326 12.4473 14.2598 12.3536 14.3536C12.2598 14.4473 12.1326 14.5 12 14.5ZM10 12.5C9.86739 12.5 9.74022 12.4473 9.64645 12.3536C9.55268 12.2598 9.5 12.1326 9.5 12C9.5 11.8674 9.55268 11.7402 9.64645 11.6464C9.74022 11.5527 9.86739 11.5 10 11.5H14C14.1326 11.5 14.2598 11.5527 14.3536 11.6464C14.4473 11.7402 14.5 11.8674 14.5 12C14.5 12.1326 14.4473 12.2598 14.3536 12.3536C14.2598 12.4473 14.1326 12.5 14 12.5H10ZM14 16.7931V14H16.7938L14 16.7931Z" fill="white"/>
</svg>
