<svg width="24" height="24" viewBox="0 0 24 24" fill="none" xmlns="http://www.w3.org/2000/svg">
<circle cx="12" cy="12" r="12" fill="#4365A7"/>
<g clip-path="url(#clip0_20_37)">
<path d="M12 5.33325C15.682 5.33325 18.6667 8.31792 18.6667 11.9999C18.6667 15.6819 15.682 18.6666 12 18.6666C8.31801 18.6666 5.33334 15.6819 5.33334 11.9999C5.33334 8.31792 8.31801 5.33325 12 5.33325ZM12 7.99992C11.8232 7.99992 11.6536 8.07016 11.5286 8.19518C11.4036 8.3202 11.3333 8.48977 11.3333 8.66659V11.9999C11.3334 12.1767 11.4036 12.3463 11.5287 12.4713L13.5287 14.4713C13.6544 14.5927 13.8228 14.6599 13.9976 14.6584C14.1724 14.6568 14.3396 14.5867 14.4632 14.4631C14.5868 14.3395 14.6569 14.1723 14.6585 13.9975C14.66 13.8227 14.5928 13.6543 14.4713 13.5286L12.6667 11.7239V8.66659C12.6667 8.48977 12.5964 8.3202 12.4714 8.19518C12.3464 8.07016 12.1768 7.99992 12 7.99992Z" fill="white"/>
</g>
<defs>
<clipPath id="clip0_20_37">
<rect width="16" height="16" fill="white" transform="translate(4 4)"/>
</clipPath>
</defs>
</svg>
