<svg width="40" height="40" viewBox="0 0 40 40" fill="none" xmlns="http://www.w3.org/2000/svg">
<circle cx="20" cy="20" r="20" fill="#4365A7"/>
<path fill-rule="evenodd" clip-rule="evenodd" d="M10.345 10.2451C10.4943 10.1154 10.6787 10.0329 10.8748 10.008C11.071 9.98306 11.2701 10.0168 11.447 10.1051L29.447 19.1051C29.6135 19.188 29.7534 19.3157 29.8513 19.4738C29.9491 19.6319 30.001 19.8141 30.001 20.0001C30.001 20.186 29.9491 20.3682 29.8513 20.5263C29.7534 20.6844 29.6135 20.8121 29.447 20.8951L11.447 29.8951C11.2701 29.9836 11.0709 30.0177 10.8746 29.9929C10.6783 29.9682 10.4937 29.8858 10.3443 29.7562C10.1948 29.6265 10.0872 29.4554 10.035 29.2646C9.98281 29.0738 9.98839 28.8717 10.051 28.6841L12.613 21.0001H18C18.2653 21.0001 18.5196 20.8947 18.7072 20.7072C18.8947 20.5196 19 20.2653 19 20.0001C19 19.7348 18.8947 19.4805 18.7072 19.293C18.5196 19.1054 18.2653 19.0001 18 19.0001H12.613L10.05 11.3161C9.98771 11.1285 9.98237 10.9266 10.0347 10.736C10.087 10.5454 10.1957 10.3745 10.345 10.2451Z" fill="white"/>
</svg>
