<svg width="16" height="16" viewBox="0 0 16 16" fill="none" xmlns="http://www.w3.org/2000/svg">
<path d="M6.95 9.35L5.3375 7.7375C5.2 7.6 5.025 7.53125 4.8125 7.53125C4.6 7.53125 4.425 7.6 4.2875 7.7375C4.15 7.875 4.08125 8.05 4.08125 8.2625C4.08125 8.475 4.15 8.65 4.2875 8.7875L6.425 10.925C6.575 11.075 6.75 11.15 6.95 11.15C7.15 11.15 7.325 11.075 7.475 10.925L11.7125 6.6875C11.85 6.55 11.9188 6.375 11.9188 6.1625C11.9188 5.95 11.85 5.775 11.7125 5.6375C11.575 5.5 11.4 5.43125 11.1875 5.43125C10.975 5.43125 10.8 5.5 10.6625 5.6375L6.95 9.35ZM8 15.5C6.9625 15.5 5.9875 15.303 5.075 14.909C4.1625 14.515 3.36875 13.9808 2.69375 13.3063C2.01875 12.6313 1.4845 11.8375 1.091 10.925C0.6975 10.0125 0.5005 9.0375 0.5 8C0.5 6.9625 0.697 5.9875 1.091 5.075C1.485 4.1625 2.01925 3.36875 2.69375 2.69375C3.36875 2.01875 4.1625 1.4845 5.075 1.091C5.9875 0.6975 6.9625 0.5005 8 0.5C9.0375 0.5 10.0125 0.697 10.925 1.091C11.8375 1.485 12.6313 2.01925 13.3063 2.69375C13.9813 3.36875 14.5157 4.1625 14.9097 5.075C15.3037 5.9875 15.5005 6.9625 15.5 8C15.5 9.0375 15.303 10.0125 14.909 10.925C14.515 11.8375 13.9808 12.6313 13.3063 13.3063C12.6313 13.9813 11.8375 14.5157 10.925 14.9097C10.0125 15.3037 9.0375 15.5005 8 15.5Z" fill="#1FAD53"/>
</svg>
