<svg width="35" height="35" viewBox="0 0 35 35" fill="none" xmlns="http://www.w3.org/2000/svg">
<g id="material-symbols:audio-file">
<path id="Vector" d="M15.8438 27.7087C16.7674 27.7087 17.5451 27.3927 18.1771 26.7607C18.809 26.1288 19.125 25.351 19.125 24.4274V18.9587H23.5V16.042H17.6667V21.693C17.3993 21.4986 17.1135 21.3586 16.8092 21.273C16.5049 21.1875 16.1831 21.1452 15.8438 21.1462C14.9201 21.1462 14.1424 21.4621 13.5104 22.0941C12.8785 22.726 12.5625 23.5038 12.5625 24.4274C12.5625 25.351 12.8785 26.1288 13.5104 26.7607C14.1424 27.3927 14.9201 27.7087 15.8438 27.7087ZM8.91667 32.0837C8.11459 32.0837 7.42771 31.7978 6.85604 31.2262C6.28438 30.6545 5.99903 29.9681 6 29.167V5.83366C6 5.03158 6.28584 4.3447 6.8575 3.77304C7.42917 3.20137 8.11556 2.91602 8.91667 2.91699H20.5833L29.3333 11.667V29.167C29.3333 29.9691 29.0475 30.656 28.4758 31.2276C27.9042 31.7993 27.2178 32.0846 26.4167 32.0837H8.91667ZM19.125 13.1253H26.4167L19.125 5.83366V13.1253Z" fill="#00B9D6"/>
</g>
</svg>
