<?xml version="1.0" encoding="UTF-8" standalone="no"?> <svg xmlns="http://www.w3.org/2000/svg" xmlns:xlink="http://www.w3.org/1999/xlink" xmlns:serif="http://www.serif.com/" width="100%" height="100%" viewBox="0 0 600 600" xml:space="preserve" style="fill-rule:evenodd;clip-rule:evenodd;stroke-linejoin:round;stroke-miterlimit:2;"> <g> <path d="M33.458,312.272c0,-143.262 114.069,-259.612 254.521,-259.612l13.192,0c-121.053,7.124 -216.498,109.227 -216.498,233.491c-0,129.015 102.429,233.492 228.913,233.492c122.605,0 221.93,-98.146 228.914,-220.828l-0,13.457c-0,143.259 -114.07,259.611 -254.521,259.611c-140.452,-0 -254.521,-116.352 -254.521,-259.611Zm145.698,-225.413c-81.36,41.036 -137.364,126.634 -137.364,225.413c-0,138.616 110.287,251.277 246.187,251.277c96.583,0 180.231,-56.905 220.541,-139.578c-42.868,62.783 -114.025,104.006 -194.934,104.006c-131.043,-0 -237.247,-108.161 -237.247,-241.826c0,-82.488 40.629,-155.522 102.817,-199.292Z" style="fill:#23262c;"></path> <path d="M14.052,300.396c0,-161.466 128.037,-292.063 286.335,-292.063c158.301,0 285.561,130.597 285.561,291.271c-0,161.465 -128.036,292.063 -286.335,292.063l-6.208,-0c148.212,-3.167 266.936,-126.64 266.936,-278.608c0.776,-154.341 -121.828,-279.398 -273.145,-279.398c-148.211,0 -270.04,121.891 -273.144,272.274l0,-5.539Zm515.86,158.308c30.125,-45.374 47.702,-100.122 47.702,-159.1c0,-156.032 -123.499,-282.937 -277.227,-282.937c-56.775,-0 -109.531,17.309 -153.477,47.035c41.368,-24.39 89.317,-38.374 140.286,-38.374c155.892,-0 282.278,128.765 281.478,287.731c0,53.183 -14.124,102.969 -38.762,145.645Z" style="fill:#23262c;"></path> <path d="M450.922,336.723c0,61.736 -61.301,111.6 -137.347,111.6c-76.046,0 -137.348,-49.864 -137.348,-111.6c-0,-80.734 79.925,-182.836 137.348,-238.241c60.527,60.154 137.347,158.3 137.347,238.241Zm-137.423,-226.496c-32.816,32.626 -71.638,79.239 -98.152,127.714c-18.292,33.443 -30.787,67.726 -30.787,98.782c0,57.649 58.005,103.267 129.015,103.267c71.011,0 129.014,-45.619 129.014,-103.267c0,-30.734 -12,-64.21 -29.9,-97.086c-26.074,-47.89 -64.762,-94.399 -99.19,-129.41Z" style="fill:#23262c;"></path> </g> </svg> 